<?xml version="1.0" standalone="no"?>
<!DOCTYPE svg PUBLIC "-//W3C//DTD SVG 20010904//EN"
 "http://www.w3.org/TR/2001/REC-SVG-20010904/DTD/svg10.dtd">
<svg version="1.0" xmlns="http://www.w3.org/2000/svg"
 width="512.000000pt" height="512.000000pt" viewBox="0 0 512.000000 512.000000"
 preserveAspectRatio="xMidYMid meet">
<metadata>
Created by potrace 1.11, written by Peter Selinger 2001-2013
</metadata>
<g transform="translate(0.000000,512.000000) scale(0.100000,-0.100000)"
fill="#000000" stroke="none">
<path d="M2388 5043 c-15 -7 -51 -17 -79 -20 -28 -3 -53 -12 -56 -19 -2 -7
-22 -15 -44 -19 -21 -4 -39 -11 -39 -16 0 -6 -15 -16 -33 -24 -19 -8 -39 -21
-47 -29 -7 -9 -16 -16 -21 -16 -5 0 -25 -16 -45 -35 -19 -19 -40 -35 -45 -35
-5 0 -9 -7 -9 -15 0 -9 -11 -20 -25 -25 -14 -5 -25 -16 -25 -25 0 -8 -4 -15
-9 -15 -5 0 -180 -170 -390 -377 -663 -657 -1021 -1008 -1031 -1011 -6 -2 -10
-10 -10 -18 0 -8 -4 -14 -9 -14 -14 0 -290 -282 -318 -326 -7 -10 -23 -35 -36
-55 -13 -19 -27 -48 -31 -65 -4 -16 -12 -31 -17 -34 -5 -4 -13 -29 -19 -58 -5
-29 -16 -65 -25 -81 -21 -42 -21 -284 0 -324 8 -15 17 -45 21 -65 6 -34 34
-107 55 -142 5 -8 16 -29 24 -46 7 -17 21 -36 29 -44 9 -7 16 -17 16 -23 0 -6
171 -179 379 -386 985 -975 1233 -1221 1234 -1221 1 0 64 -61 141 -135 76 -74
142 -135 147 -135 5 0 17 -7 27 -16 33 -29 93 -64 111 -64 10 0 24 -6 30 -14
7 -8 31 -18 54 -21 23 -4 58 -14 77 -24 51 -23 320 -23 370 1 19 9 56 19 82
23 26 4 53 13 59 21 6 8 19 14 29 14 9 0 29 9 43 20 14 11 28 20 32 20 17 0
141 106 243 207 62 62 117 113 122 113 6 0 10 7 10 16 0 9 9 18 20 21 10 3 22
14 25 24 4 10 13 19 21 19 8 0 14 4 14 9 0 8 57 71 65 71 8 0 52 48 58 64 4 9
13 16 22 16 8 0 15 7 15 16 0 9 9 18 20 21 10 3 22 14 25 24 4 10 10 19 15 19
5 0 151 142 325 315 173 173 319 315 324 315 5 0 11 9 14 20 3 11 12 20 21 20
9 0 16 7 16 15 0 9 11 21 25 27 14 6 25 16 25 22 0 6 16 22 35 36 19 14 37 33
40 43 4 9 12 17 20 17 8 0 17 9 20 20 3 11 10 20 15 20 13 0 260 248 260 260
0 6 5 10 10 10 21 0 145 140 162 182 4 10 11 18 16 18 5 0 15 18 22 40 7 22
19 45 27 51 7 6 13 20 13 31 0 10 7 32 15 48 39 75 39 438 0 492 -8 13 -15 29
-15 37 0 20 -53 124 -67 134 -7 4 -13 14 -13 22 0 14 -22 42 -87 113 -24 25
-43 48 -43 52 0 4 -9 10 -20 13 -11 3 -20 12 -20 21 0 9 -4 16 -9 16 -5 0 -30
21 -55 46 -25 25 -46 50 -46 55 0 5 -4 9 -9 9 -5 0 -84 74 -176 165 -91 91
-170 165 -176 165 -5 0 -9 4 -9 9 0 12 -89 101 -101 101 -5 0 -9 7 -9 15 0 9
-11 20 -25 25 -14 5 -25 16 -25 25 0 8 -6 15 -14 15 -8 0 -17 8 -21 18 -3 9
-21 28 -40 42 -19 14 -37 33 -40 43 -4 9 -12 17 -20 17 -8 0 -17 9 -20 20 -3
11 -11 20 -16 20 -13 0 -69 55 -69 68 0 5 -9 12 -20 15 -11 3 -20 12 -20 20 0
8 -9 17 -20 20 -11 3 -20 12 -20 21 0 9 -4 16 -9 16 -5 0 -101 90 -212 200
-111 110 -206 200 -211 200 -4 0 -8 4 -8 9 0 12 -127 138 -146 145 -8 3 -14
12 -14 20 0 7 -9 16 -20 19 -11 3 -20 12 -20 21 0 9 -4 16 -9 16 -5 0 -26 17
-47 37 -51 50 -164 133 -179 133 -7 0 -15 6 -18 14 -3 7 -21 16 -40 20 -19 4
-40 13 -46 20 -6 7 -34 17 -63 20 -28 4 -64 14 -79 22 -39 20 -292 18 -331 -3z
m1494 -1439 c35 -5 47 -12 60 -35 15 -25 15 -35 4 -81 -8 -29 -16 -77 -19
-107 -4 -29 -11 -59 -16 -65 -6 -7 -15 -52 -20 -101 -6 -49 -16 -92 -22 -95
-6 -4 -13 -37 -16 -72 -5 -54 -10 -71 -35 -97 l-29 -31 -287 0 -287 0 -23 -69
c-12 -38 -22 -85 -22 -104 0 -19 -9 -63 -20 -97 -11 -34 -20 -80 -20 -102 0
-21 -7 -55 -16 -76 -8 -20 -19 -72 -24 -116 -5 -43 -14 -84 -20 -91 -6 -7 -15
-50 -21 -95 -5 -46 -15 -92 -21 -103 -6 -11 -15 -54 -20 -95 -5 -41 -13 -83
-19 -93 -5 -10 -14 -53 -19 -95 -5 -42 -14 -82 -20 -89 -5 -6 -14 -51 -19 -99
-6 -49 -15 -94 -22 -102 -6 -7 -15 -47 -20 -89 -4 -41 -15 -96 -23 -122 -9
-26 -18 -60 -21 -74 -7 -41 -78 -102 -132 -116 -75 -20 -432 -17 -482 3 -68
27 -90 111 -46 177 12 19 30 27 77 36 33 6 64 8 69 5 5 -2 31 5 59 17 43 18
51 27 60 60 13 49 4 87 -29 119 l-26 25 -280 5 -280 5 -32 32 c-29 27 -33 38
-33 81 0 42 5 54 32 83 l33 34 229 5 230 5 33 44 c34 44 35 53 10 112 -12 29
-68 53 -151 64 -27 4 -60 14 -73 22 -55 37 -47 168 12 185 17 5 39 13 50 18
11 5 85 11 165 13 80 2 152 7 160 11 8 3 23 26 33 49 16 39 16 47 3 79 -29 69
-27 68 -240 68 -187 0 -193 1 -225 24 -49 36 -60 56 -61 106 0 38 5 50 32 75
l31 30 160 5 c120 4 161 8 165 18 2 7 14 17 27 22 42 16 44 130 1 152 -11 6
-25 17 -29 24 -7 12 -89 14 -451 14 l-443 0 -26 23 c-39 34 -50 72 -37 129 7
29 18 48 26 48 8 0 22 9 31 20 15 17 30 20 93 20 105 0 117 5 144 59 l24 46
-24 45 c-30 57 -40 59 -284 59 -172 1 -188 3 -228 23 -47 26 -56 42 -55 109 1
57 33 95 83 102 56 6 2583 8 2632 1z m-2298 -1857 c14 -13 26 -29 26 -34 0 -6
6 -16 14 -22 14 -12 10 -57 -5 -67 -5 -3 -9 -13 -9 -23 0 -29 -54 -61 -102
-61 -106 0 -153 132 -73 206 44 41 105 41 149 1z"/>
</g>
</svg>
