<svg xmlns="http://www.w3.org/2000/svg" xmlns:xlink="http://www.w3.org/1999/xlink" viewBox="0 0 64 64" version="1.1">
    <g id="surface1">
        <path style=" fill:#72CAAF;" d="M 59 31 C 59 46.464844 46.464844 59 31 59 C 15.535156 59 3 46.464844 3 31 C 3 15.535156 15.535156 3 31 3 C 46.464844 3 59 15.535156 59 31 Z "></path>
        <path style=" fill:#F9E3AE;" d="M 31 3 C 15.535156 3 3 15.535156 3 31 C 3 46.464844 15.535156 59 31 59 C 46.464844 59 59 46.464844 59 31 C 59 15.535156 46.464844 3 31 3 Z M 31 53 C 21.109375 53 12.433594 46.402344 9.792969 36.867188 C 7.15625 27.335938 11.203125 17.214844 19.6875 12.128906 C 28.171875 7.042969 39.007813 8.246094 46.171875 15.070313 L 46.851563 15.738281 C 47.109375 16.007813 47.359375 16.28125 47.601563 16.558594 C 53.257813 23.0625 54.597656 32.273438 51.023438 40.121094 C 47.449219 47.964844 39.621094 53 31 53 Z "></path>
        <path style=" fill:#F6D397;" d="M 31 53 C 18.851563 53 9 43.148438 9 31 L 7.339844 31 C 6.152344 30.996094 5.023438 31.519531 4.261719 32.429688 C 3.5 33.339844 3.179688 34.542969 3.390625 35.710938 C 5.675781 49.171875 17.339844 59.023438 30.996094 59.023438 C 44.652344 59.023438 56.3125 49.171875 58.601563 35.710938 C 58.808594 34.542969 58.492188 33.34375 57.730469 32.433594 C 56.972656 31.523438 55.847656 31 54.660156 31 L 53 31 C 53 43.148438 43.148438 53 31 53 Z "></path>
        <path style=" fill:#8D6C9F;" d="M 31 2 C 14.984375 2 2 14.984375 2 31 C 2 47.015625 14.984375 60 31 60 C 47.015625 60 60 47.015625 60 31 C 60 14.984375 47.015625 2 31 2 Z M 31 58 C 16.089844 58 4 45.910156 4 31 C 4 16.089844 16.089844 4 31 4 C 45.910156 4 58 16.089844 58 31 C 58 45.910156 45.910156 58 31 58 Z "></path>
        <path style=" fill:#FAEFDE;" d="M 32 15 C 32 14.449219 31.550781 14 31 14 C 30.449219 14 30 14.449219 30 15 L 30 17 C 30 17.550781 30.449219 18 31 18 C 31.550781 18 32 17.550781 32 17 Z "></path>
        <path style=" fill:#FAEFDE;" d="M 47 32 C 47.550781 32 48 31.550781 48 31 C 48 30.449219 47.550781 30 47 30 L 45 30 C 44.449219 30 44 30.449219 44 31 C 44 31.550781 44.449219 32 45 32 Z "></path>
        <path style=" fill:#FAEFDE;" d="M 17 30 L 15 30 C 14.449219 30 14 30.449219 14 31 C 14 31.550781 14.449219 32 15 32 L 17 32 C 17.550781 32 18 31.550781 18 31 C 18 30.449219 17.550781 30 17 30 Z "></path>
        <path style=" fill:#FAEFDE;" d="M 31 48 C 31.550781 48 32 47.550781 32 47 L 32 45 C 32 44.449219 31.550781 44 31 44 C 30.449219 44 30 44.449219 30 45 L 30 47 C 30 47.550781 30.449219 48 31 48 Z "></path>
        <path style=" fill:#FAEFDE;" d="M 25.761719 19 C 26.09375 19 26.40625 18.835938 26.59375 18.558594 C 26.78125 18.28125 26.816406 17.929688 26.691406 17.621094 L 25.941406 15.769531 C 25.820313 15.417969 25.515625 15.160156 25.148438 15.101563 C 24.78125 15.042969 24.414063 15.191406 24.191406 15.488281 C 23.96875 15.789063 23.929688 16.183594 24.089844 16.519531 L 24.839844 18.371094 C 24.992188 18.746094 25.355469 18.996094 25.761719 19 Z "></path>
        <path style=" fill:#FAEFDE;" d="M 21.269531 21.929688 C 21.675781 21.9375 22.042969 21.699219 22.203125 21.324219 C 22.363281 20.953125 22.285156 20.519531 22 20.230469 L 20.609375 18.800781 C 20.226563 18.402344 19.59375 18.390625 19.195313 18.773438 C 18.796875 19.160156 18.785156 19.792969 19.171875 20.191406 L 20.558594 21.628906 C 20.746094 21.820313 21.003906 21.929688 21.269531 21.929688 Z "></path>
        <path style=" fill:#FAEFDE;" d="M 19.121094 25.710938 C 19.226563 25.46875 19.234375 25.191406 19.136719 24.945313 C 19.042969 24.695313 18.851563 24.496094 18.609375 24.390625 L 16.78125 23.578125 C 16.289063 23.429688 15.765625 23.671875 15.566406 24.144531 C 15.363281 24.613281 15.550781 25.160156 16 25.410156 L 17.828125 26.21875 C 18.074219 26.328125 18.347656 26.335938 18.597656 26.238281 C 18.84375 26.144531 19.042969 25.953125 19.148438 25.710938 Z "></path>
        <path style=" fill:#8D6C9F;" d="M 38.351563 11.320313 C 39.066406 11.589844 39.765625 11.894531 40.449219 12.238281 C 40.945313 12.488281 41.546875 12.289063 41.796875 11.796875 C 42.042969 11.300781 41.84375 10.699219 41.351563 10.449219 C 40.601563 10.074219 39.835938 9.742188 39.050781 9.449219 C 38.710938 9.300781 38.316406 9.351563 38.027344 9.582031 C 37.734375 9.8125 37.59375 10.183594 37.664063 10.546875 C 37.730469 10.914063 37.996094 11.210938 38.351563 11.320313 Z "></path>
        <path style=" fill:#8D6C9F;" d="M 51.550781 41.300781 C 51.699219 41 51.851563 40.710938 51.988281 40.410156 C 52.128906 40.109375 52.148438 40.03125 52.230469 39.839844 L 52.359375 39.53125 C 52.621094 38.863281 52.847656 38.214844 53.039063 37.578125 L 53.039063 37.511719 C 54.503906 32.574219 54.261719 27.289063 52.351563 22.511719 L 52.230469 22.199219 C 52.011719 21.671875 51.78125 21.199219 51.519531 20.640625 C 50.429688 18.476563 49 16.503906 47.289063 14.789063 C 46.632813 14.128906 45.933594 13.507813 45.199219 12.929688 C 44.921875 12.675781 44.527344 12.601563 44.175781 12.730469 C 43.824219 12.863281 43.578125 13.179688 43.53125 13.554688 C 43.488281 13.925781 43.660156 14.292969 43.96875 14.5 C 44.640625 15.027344 45.277344 15.59375 45.878906 16.199219 C 47.816406 18.148438 49.347656 20.457031 50.390625 23 L 50.5 23.269531 C 52.226563 27.640625 52.449219 32.460938 51.128906 36.96875 L 51.128906 37.039063 C 50.949219 37.640625 50.738281 38.230469 50.511719 38.820313 L 50.390625 39.101563 C 50.238281 39.460938 50.070313 39.808594 49.898438 40.160156 C 49.730469 40.511719 49.558594 40.851563 49.378906 41.160156 C 49.199219 41.46875 49.050781 41.730469 48.878906 42.011719 C 48.710938 42.289063 48.5 42.621094 48.300781 42.910156 C 48.101563 43.199219 47.878906 43.5 47.648438 43.789063 C 47.421875 44.078125 47.25 44.300781 47.050781 44.550781 C 46.851563 44.800781 46.53125 45.128906 46.261719 45.421875 C 42.332031 49.597656 36.863281 51.984375 31.125 52.015625 C 25.390625 52.046875 19.894531 49.726563 15.921875 45.589844 C 15.671875 45.328125 15.429688 45.058594 15.199219 44.789063 C 14.96875 44.519531 14.71875 44.238281 14.5 43.960938 C 14.28125 43.679688 14.171875 43.519531 14.011719 43.289063 C 13.851563 43.058594 13.5 42.589844 13.269531 42.21875 C 13.171875 42.050781 13.070313 41.878906 12.96875 41.71875 C 12.71875 41.289063 12.46875 40.859375 12.25 40.421875 C 12.179688 40.28125 12.121094 40.140625 12.058594 40.011719 C 11.839844 39.539063 11.621094 39.058594 11.441406 38.578125 C 11.378906 38.421875 11.328125 38.25 11.269531 38.089844 C 11.109375 37.628906 10.949219 37.171875 10.820313 36.710938 C 10.75 36.460938 10.699219 36.199219 10.628906 35.949219 C 10.558594 35.699219 10.449219 35.199219 10.371094 34.808594 C 10.289063 34.421875 10.25 34.050781 10.210938 33.671875 C 10.171875 33.289063 10.128906 33.140625 10.109375 32.871094 C 10.109375 32.390625 10.050781 31.871094 10.039063 31.429688 C 10.039063 31.25 10.039063 31.070313 10.039063 30.898438 C 10.039063 30.378906 10.039063 29.898438 10.109375 29.351563 C 10.109375 29.199219 10.109375 29.039063 10.109375 28.890625 C 10.109375 28.398438 10.238281 27.890625 10.320313 27.421875 C 10.320313 27.230469 10.378906 27.03125 10.421875 26.839844 C 10.511719 26.421875 10.621094 26 10.730469 25.578125 C 10.800781 25.308594 10.871094 25.050781 10.949219 24.78125 C 11.03125 24.511719 11.179688 24.089844 11.308594 23.78125 C 11.441406 23.46875 11.558594 23.109375 11.699219 22.78125 C 11.839844 22.449219 12.011719 22.089844 12.179688 21.78125 C 12.351563 21.46875 12.398438 21.320313 12.519531 21.101563 C 12.738281 20.691406 12.980469 20.289063 13.230469 19.898438 C 13.320313 19.75 13.410156 19.601563 13.5 19.449219 C 13.851563 18.921875 14.234375 18.40625 14.640625 17.898438 L 14.980469 17.511719 C 15.289063 17.140625 15.621094 16.769531 15.980469 16.421875 C 16.339844 16.070313 16.460938 15.929688 16.71875 15.699219 L 16.988281 15.449219 C 17.363281 15.117188 17.746094 14.785156 18.140625 14.449219 L 18.480469 14.199219 C 18.765625 13.988281 19.058594 13.78125 19.351563 13.578125 L 19.859375 13.25 L 20.628906 12.789063 C 20.941406 12.609375 21.277344 12.441406 21.628906 12.28125 L 22.359375 11.921875 L 23.199219 11.558594 L 23.640625 11.390625 L 24.578125 11.050781 L 24.699219 11.050781 C 25.425781 10.816406 26.164063 10.625 26.910156 10.46875 L 27.011719 10.46875 C 27.371094 10.398438 27.730469 10.339844 28.101563 10.289063 L 28.378906 10.289063 C 29.398438 10.117188 30.425781 10.019531 31.460938 10 L 32.121094 10 L 32.898438 10.050781 L 33.980469 10.179688 L 34.328125 10.179688 C 34.59375 10.222656 34.863281 10.160156 35.078125 10.003906 C 35.292969 9.847656 35.4375 9.613281 35.480469 9.351563 C 35.523438 9.085938 35.460938 8.816406 35.304688 8.601563 C 35.148438 8.386719 34.914063 8.242188 34.648438 8.199219 L 34.28125 8.199219 C 33.871094 8.140625 33.46875 8.089844 33.058594 8.058594 L 32.261719 8 L 31.460938 8 C 30.359375 7.976563 29.261719 8.035156 28.171875 8.171875 L 27.671875 8.238281 L 26.671875 8.421875 L 26.25 8.511719 C 25.628906 8.644531 25.015625 8.804688 24.410156 8.988281 L 23.878906 9.148438 L 23 9.460938 L 22.28125 9.738281 L 21.550781 10.050781 C 21.089844 10.261719 20.640625 10.46875 20.199219 10.710938 L 19.820313 10.929688 C 19.453125 11.136719 19.089844 11.351563 18.730469 11.578125 L 18.308594 11.851563 C 17.921875 12.101563 17.546875 12.371094 17.179688 12.648438 L 16.949219 12.820313 C 16.496094 13.167969 16.058594 13.535156 15.628906 13.921875 L 15.429688 14.101563 C 15.199219 14.308594 14.980469 14.511719 14.761719 14.730469 L 14.539063 14.980469 C 14.191406 15.339844 13.851563 15.71875 13.539063 16.109375 C 13.398438 16.269531 13.261719 16.421875 13.128906 16.589844 C 12.699219 17.128906 12.28125 17.691406 11.898438 18.269531 C 11.789063 18.441406 11.691406 18.621094 11.578125 18.789063 C 11.320313 19.210938 11.058594 19.640625 10.820313 20.078125 C 10.691406 20.328125 10.570313 20.578125 10.441406 20.839844 C 10.308594 21.101563 10.179688 21.328125 10.058594 21.589844 C 9.941406 21.851563 9.890625 22 9.808594 22.199219 L 9.710938 22.441406 C 9.449219 23.105469 9.21875 23.773438 9.019531 24.441406 L 9.019531 24.5 C 8.183594 27.324219 7.902344 30.285156 8.191406 33.21875 C 8.257813 33.886719 8.355469 34.570313 8.488281 35.269531 L 8.550781 35.550781 C 8.671875 36.144531 8.8125 36.734375 8.980469 37.320313 L 9.128906 37.828125 C 9.289063 38.339844 9.46875 38.828125 9.660156 39.351563 C 9.738281 39.558594 9.828125 39.78125 9.921875 39.988281 C 10.121094 40.457031 10.332031 40.917969 10.558594 41.371094 L 10.890625 42 C 11.144531 42.464844 11.414063 42.921875 11.699219 43.371094 L 12.03125 43.878906 C 12.363281 44.378906 12.71875 44.863281 13.101563 45.328125 L 13.351563 45.640625 C 13.789063 46.171875 14.253906 46.6875 14.738281 47.179688 L 14.820313 47.261719 C 19.113281 51.554688 24.929688 53.976563 31 54 C 37.105469 53.996094 42.960938 51.574219 47.289063 47.269531 L 47.378906 47.171875 C 47.839844 46.710938 48.269531 46.230469 48.691406 45.71875 L 49.039063 45.289063 C 49.386719 44.851563 49.71875 44.398438 50.039063 43.929688 L 50.289063 43.570313 C 50.65625 43.011719 50.988281 42.429688 51.289063 41.828125 C 51.378906 41.648438 51.460938 41.480469 51.550781 41.300781 Z "></path>
        <path style=" fill:#FAEFDE;" d="M 39 40 C 39.550781 40 40 39.550781 40 39 L 40 34 L 41 34 C 41.550781 34 42 33.550781 42 33 C 42 32.449219 41.550781 32 41 32 L 40 32 L 40 23 C 40.003906 22.964844 40.003906 22.925781 40 22.890625 C 40.007813 22.824219 40.007813 22.757813 40 22.691406 C 39.957031 22.570313 39.898438 22.460938 39.820313 22.359375 C 39.773438 22.308594 39.726563 22.261719 39.671875 22.21875 C 39.640625 22.191406 39.613281 22.164063 39.578125 22.140625 L 39.519531 22.140625 L 39.328125 22.070313 L 38.691406 22.070313 L 38.519531 22.148438 L 38.371094 22.25 C 38.316406 22.296875 38.269531 22.34375 38.230469 22.398438 C 38.203125 22.429688 38.175781 22.457031 38.148438 22.488281 L 32.148438 32.488281 C 31.96875 32.796875 31.964844 33.179688 32.140625 33.492188 C 32.3125 33.800781 32.640625 33.996094 33 34 L 38 34 L 38 39 C 38 39.550781 38.449219 40 39 40 Z M 34.769531 32 L 38 26.609375 L 38 32 Z "></path>
        <path style=" fill:#FAEFDE;" d="M 28 30 L 27 30.601563 C 25.15625 31.703125 23.769531 33.433594 23.089844 35.46875 L 22.460938 37.351563 C 22.246094 37.96875 22.351563 38.648438 22.734375 39.179688 C 23.117188 39.707031 23.738281 40.011719 24.390625 40 L 30 40 C 30.550781 40 31 39.550781 31 39 C 31 38.449219 30.550781 38 30 38 L 24.390625 38 L 25 36.121094 C 25.519531 34.539063 26.582031 33.195313 28 32.328125 L 29 31.730469 C 30.226563 31.023438 30.988281 29.71875 31 28.300781 L 31 26 C 31 23.789063 29.210938 22 27 22 L 26 22 C 23.789063 22 22 23.789063 22 26 L 22 27 C 22 27.550781 22.449219 28 23 28 C 23.550781 28 24 27.550781 24 27 L 24 26 C 24 24.894531 24.894531 24 26 24 L 27 24 C 28.105469 24 29 24.894531 29 26 L 29 28.300781 C 28.988281 29.003906 28.609375 29.648438 28 30 Z "></path>
    </g>
</svg>