<svg xmlns="http://www.w3.org/2000/svg" xmlns:xlink="http://www.w3.org/1999/xlink" viewBox="0 0 48 48" version="1.1">
    <g id="surface1">
        <path style="fill:none;stroke-width:2;stroke-linecap:round;stroke-linejoin:round;stroke:#C67305;stroke-opacity:1;stroke-miterlimit:4;" d="M 31 33.164063 L 31.160156 32.691406 "></path>
        <path style="fill:none;stroke-width:2;stroke-linecap:round;stroke-linejoin:round;stroke:#C67305;stroke-opacity:1;stroke-dasharray:1.0658,2.1317;stroke-miterlimit:4;" d="M 31.851563 30.675781 L 35.648438 19.582031 "></path>
        <path style="fill:none;stroke-width:2;stroke-linecap:round;stroke-linejoin:round;stroke:#C67305;stroke-opacity:1;stroke-miterlimit:4;" d="M 35.992188 18.570313 L 36.152344 18.101563 L 36.308594 18.574219 "></path>
        <path style="fill:none;stroke-width:2;stroke-linecap:round;stroke-linejoin:round;stroke:#C67305;stroke-opacity:1;stroke-dasharray:1.0589,2.1178;stroke-miterlimit:4;" d="M 36.957031 20.59375 L 40.523438 31.679688 "></path>
        <path style="fill:none;stroke-width:2;stroke-linecap:round;stroke-linejoin:round;stroke:#C67305;stroke-opacity:1;stroke-miterlimit:4;" d="M 40.847656 32.6875 L 41 33.164063 "></path>
        <path style="fill:none;stroke-width:2;stroke-linecap:round;stroke-linejoin:round;stroke:#C67305;stroke-opacity:1;stroke-miterlimit:4;" d="M 7 33.164063 L 7.160156 32.691406 "></path>
        <path style="fill:none;stroke-width:2;stroke-linecap:round;stroke-linejoin:round;stroke:#C67305;stroke-opacity:1;stroke-dasharray:1.0658,2.1317;stroke-miterlimit:4;" d="M 7.851563 30.675781 L 11.648438 19.582031 "></path>
        <path style="fill:none;stroke-width:2;stroke-linecap:round;stroke-linejoin:round;stroke:#C67305;stroke-opacity:1;stroke-miterlimit:4;" d="M 11.992188 18.570313 L 12.152344 18.101563 L 12.308594 18.574219 "></path>
        <path style="fill:none;stroke-width:2;stroke-linecap:round;stroke-linejoin:round;stroke:#C67305;stroke-opacity:1;stroke-dasharray:1.0589,2.1178;stroke-miterlimit:4;" d="M 12.957031 20.59375 L 16.523438 31.679688 "></path>
        <path style="fill:none;stroke-width:2;stroke-linecap:round;stroke-linejoin:round;stroke:#C67305;stroke-opacity:1;stroke-miterlimit:4;" d="M 16.847656 32.6875 L 17 33.164063 "></path>
        <path style="fill:none;stroke-width:2;stroke-linecap:round;stroke-linejoin:round;stroke:#C67305;stroke-opacity:1;stroke-miterlimit:10;" d="M 24 12.164063 C 29 12.164063 32 16.164063 36 16.164063 C 36 16.164063 39 16.164063 39 13.164063 C 39 11.164063 37 11.164063 37 11.164063 C 37 11.164063 35 11.164063 35 13.164063 "></path>
        <path style="fill:none;stroke-width:2;stroke-linecap:round;stroke-linejoin:round;stroke:#C67305;stroke-opacity:1;stroke-miterlimit:10;" d="M 24 12.164063 C 19 12.164063 16 16.164063 12 16.164063 C 12 16.164063 9 16.164063 9 13.164063 C 9 11.164063 11 11.164063 11 11.164063 C 11 11.164063 13 11.164063 13 13.164063 "></path>
        <path style=" fill:#C67305;" d="M 22 7.164063 C 22 6.058594 24 4 24 4 C 24 4 26 6.058594 26 7.164063 C 26 8.269531 25.105469 9.164063 24 9.164063 C 22.894531 9.164063 22 8.269531 22 7.164063 Z "></path>
        <path style=" fill:#C67305;" d="M 30 42 C 30 40.894531 29.105469 40 28 40 L 20 40 C 18.894531 40 18 40.894531 18 42 L 18 43 L 30 43 Z "></path>
        <path style=" fill:#FFC107;" d="M 30 34 C 30 34 31 38 36 38 C 41 38 42 34 42 34 Z "></path>
        <path style=" fill:#FFC107;" d="M 6 34 C 6 34 7 38 12 38 C 17 38 18 34 18 34 Z "></path>
        <path style=" fill:#FFC107;" d="M 23 13.164063 L 25 13.164063 L 25 40 L 23 40 Z "></path>
        <path style=" fill:#FFC107;" d="M 27 12.164063 C 27 13.820313 25.65625 15.164063 24 15.164063 C 22.34375 15.164063 21 13.820313 21 12.164063 C 21 10.507813 22.34375 9.164063 24 9.164063 C 25.65625 9.164063 27 10.507813 27 12.164063 Z "></path>
        <path style=" fill:#FFC107;" d="M 25 35 L 23 35 C 23 35 23 40 20 40 C 17 40 31 40 28 40 C 25 40 25 35 25 35 Z "></path>
    </g>
</svg>