<svg xmlns="http://www.w3.org/2000/svg" xmlns:xlink="http://www.w3.org/1999/xlink" viewBox="0 0 64 64" version="1.1">
    <g id="surface1">
        <path style=" fill:#FAEFDE;" d="M 7.148438 59 L 56.851563 59 C 57.40625 59 57.9375 58.773438 58.316406 58.367188 C 58.695313 57.960938 58.890625 57.414063 58.851563 56.859375 L 56.140625 18.859375 C 56.066406 17.808594 55.191406 16.996094 54.140625 17 L 9.859375 17 C 8.808594 16.996094 7.933594 17.808594 7.859375 18.859375 L 5.148438 56.859375 C 5.109375 57.414063 5.304688 57.960938 5.683594 58.367188 C 6.0625 58.773438 6.59375 59 7.148438 59 Z "></path>
        <path style=" fill:#EFD8BE;" d="M 10 54 L 54 54 C 56.210938 54 58 55.789063 58 58 L 58 59 L 6 59 L 6 58 C 6 55.789063 7.789063 54 10 54 Z "></path>
        <path style=" fill:#FFF7F0;" d="M 10 15 L 54 15 C 55.105469 15 56 15.894531 56 17 L 56 19 L 8 19 L 8 17 C 8 15.894531 8.894531 15 10 15 Z "></path>
        <path style=" fill:#8D6C9F;" d="M 9 52 C 8.449219 52 8 52.449219 8 53 L 8 55 C 8 55.550781 8.449219 56 9 56 C 9.550781 56 10 55.550781 10 55 L 10 53 C 10 52.449219 9.550781 52 9 52 Z "></path>
        <path style=" fill:#8D6C9F;" d="M 14 52 C 13.449219 52 13 52.449219 13 53 L 13 55 C 13 55.550781 13.449219 56 14 56 C 14.550781 56 15 55.550781 15 55 L 15 53 C 15 52.449219 14.550781 52 14 52 Z "></path>
        <path style=" fill:#8D6C9F;" d="M 19 52 C 18.449219 52 18 52.449219 18 53 L 18 55 C 18 55.550781 18.449219 56 19 56 C 19.550781 56 20 55.550781 20 55 L 20 53 C 20 52.449219 19.550781 52 19 52 Z "></path>
        <path style=" fill:#8D6C9F;" d="M 24 52 C 23.449219 52 23 52.449219 23 53 L 23 55 C 23 55.550781 23.449219 56 24 56 C 24.550781 56 25 55.550781 25 55 L 25 53 C 25 52.449219 24.550781 52 24 52 Z "></path>
        <path style=" fill:#8D6C9F;" d="M 29 52 C 28.449219 52 28 52.449219 28 53 L 28 55 C 28 55.550781 28.449219 56 29 56 C 29.550781 56 30 55.550781 30 55 L 30 53 C 30 52.449219 29.550781 52 29 52 Z "></path>
        <path style=" fill:#8D6C9F;" d="M 35 52 C 34.449219 52 34 52.449219 34 53 L 34 55 C 34 55.550781 34.449219 56 35 56 C 35.550781 56 36 55.550781 36 55 L 36 53 C 36 52.449219 35.550781 52 35 52 Z "></path>
        <path style=" fill:#8D6C9F;" d="M 40 52 C 39.449219 52 39 52.449219 39 53 L 39 55 C 39 55.550781 39.449219 56 40 56 C 40.550781 56 41 55.550781 41 55 L 41 53 C 41 52.449219 40.550781 52 40 52 Z "></path>
        <path style=" fill:#8D6C9F;" d="M 45 52 C 44.449219 52 44 52.449219 44 53 L 44 55 C 44 55.550781 44.449219 56 45 56 C 45.550781 56 46 55.550781 46 55 L 46 53 C 46 52.449219 45.550781 52 45 52 Z "></path>
        <path style=" fill:#8D6C9F;" d="M 50 52 C 49.449219 52 49 52.449219 49 53 L 49 55 C 49 55.550781 49.449219 56 50 56 C 50.550781 56 51 55.550781 51 55 L 51 53 C 51 52.449219 50.550781 52 50 52 Z "></path>
        <path style=" fill:#8D6C9F;" d="M 54 53 L 54 55 C 54 55.550781 54.449219 56 55 56 C 55.550781 56 56 55.550781 56 55 L 56 53 C 56 52.449219 55.550781 52 55 52 C 54.449219 52 54 52.449219 54 53 Z "></path>
        <path style=" fill:#8D6C9F;" d="M 57.128906 16.789063 C 57.019531 15.214844 55.707031 13.996094 54.128906 14 L 43.949219 14 C 43.382813 7.824219 38.203125 3.09375 32 3.09375 C 25.796875 3.09375 20.617188 7.824219 20.050781 14 L 9.859375 14 C 8.28125 13.996094 6.96875 15.214844 6.859375 16.789063 L 4.148438 56.789063 C 4.089844 57.621094 4.382813 58.441406 4.949219 59.046875 C 5.519531 59.65625 6.316406 60.003906 7.148438 60 L 56.851563 60 C 57.683594 60.003906 58.480469 59.65625 59.050781 59.046875 C 59.617188 58.441406 59.910156 57.621094 59.851563 56.789063 Z M 32 5 C 37.136719 5 41.4375 8.890625 41.949219 14 L 22.050781 14 C 22.5625 8.890625 26.863281 5 32 5 Z M 57.578125 57.679688 C 57.390625 57.882813 57.128906 58 56.851563 58 L 7.148438 58 C 6.871094 58 6.601563 57.882813 6.414063 57.679688 C 6.222656 57.472656 6.128906 57.199219 6.148438 56.921875 L 8.660156 20 L 43 20 C 43.550781 20 44 19.550781 44 19 C 44 18.449219 43.550781 18 43 18 L 8.789063 18 L 8.859375 16.929688 C 8.898438 16.40625 9.332031 16 9.859375 16 L 54.140625 16 C 54.664063 16 55.097656 16.398438 55.140625 16.921875 L 57.851563 56.921875 C 57.871094 57.199219 57.773438 57.476563 57.578125 57.679688 Z "></path>
        <path style=" fill:#8D6C9F;" d="M 51 18 L 47 18 C 46.449219 18 46 18.449219 46 19 C 46 19.550781 46.449219 20 47 20 L 51 20 C 51.550781 20 52 19.550781 52 19 C 52 18.449219 51.550781 18 51 18 Z "></path>
        <path style=" fill:#ED7899;" d="M 29 32 L 29 29 C 29 27.34375 27.65625 26 26 26 L 25 26 C 23.34375 26 22 27.34375 22 29 L 22 32 C 22 33.65625 23.34375 35 25 35 L 26 35 C 27.65625 35 29 33.65625 29 32 Z M 27 32 C 27 32.550781 26.550781 33 26 33 L 25 33 C 24.449219 33 24 32.550781 24 32 L 24 29 C 24 28.449219 24.449219 28 25 28 L 26 28 C 26.550781 28 27 28.449219 27 29 Z "></path>
        <path style=" fill:#ED7899;" d="M 38 37 L 37 37 C 35.34375 37 34 38.34375 34 40 L 34 43 C 34 44.65625 35.34375 46 37 46 L 38 46 C 39.65625 46 41 44.65625 41 43 L 41 40 C 41 38.34375 39.65625 37 38 37 Z M 39 43 C 39 43.550781 38.550781 44 38 44 L 37 44 C 36.449219 44 36 43.550781 36 43 L 36 40 C 36 39.449219 36.449219 39 37 39 L 38 39 C 38.550781 39 39 39.449219 39 40 Z "></path>
        <path style=" fill:#ED7899;" d="M 36.460938 25.109375 C 35.972656 24.851563 35.367188 25.042969 35.109375 25.53125 L 26.109375 45.53125 C 25.867188 46.015625 26.058594 46.605469 26.539063 46.859375 C 27.023438 47.113281 27.617188 46.933594 27.878906 46.460938 L 36.878906 26.460938 C 37.136719 25.972656 36.949219 25.367188 36.460938 25.109375 Z "></path>
    </g>
</svg>