<svg xmlns="http://www.w3.org/2000/svg" xmlns:xlink="http://www.w3.org/1999/xlink" viewBox="0 0 64 64" version="1.1">
    <g id="surface1">
        <path style=" fill:#C2CDE7;" d="M 59.148438 39 L 50.929688 34 C 49.601563 35.679688 46.28125 34.238281 44.390625 34.558594 L 46 49.421875 L 62.699219 49.421875 L 62.699219 45.25 C 62.683594 42.691406 61.339844 40.324219 59.148438 39 Z "></path>
        <path style=" fill:#ED7899;" d="M 52.300781 40.460938 L 42.109375 34.308594 C 40.460938 36.398438 36.351563 34.601563 34 35 L 36 53.421875 L 56.699219 53.421875 L 56.699219 48.25 C 56.699219 45.0625 55.03125 42.105469 52.300781 40.460938 Z "></path>
        <path style=" fill:#DD6B8E;" d="M 53 48 L 48 48 L 48 53 L 56 53 C 56.550781 53 57 52.550781 57 52 C 57 49.789063 55.210938 48 53 48 Z "></path>
        <path style=" fill:#ACB7D0;" d="M 59 44 L 57 44 L 57 49 L 62 49 C 62.550781 49 63 48.550781 63 48 C 63 45.789063 61.210938 44 59 44 Z "></path>
        <path style=" fill:#72CAAF;" d="M 49 52.75 L 49 58.421875 L 1 58.421875 L 1 52.75 C 1.003906 49.246094 2.839844 46 5.839844 44.191406 L 17 37.429688 C 19.140625 40.089844 21.921875 42 25 42 C 28.078125 42 30.859375 40.109375 33 37.449219 L 44.191406 44.199219 C 47.175781 46.015625 49 49.253906 49 52.75 Z "></path>
        <path style=" fill:#7DD8BA;" d="M 25 45 C 29.101563 45 32.820313 42.878906 35.558594 39.441406 C 36.359375 38.441406 33.820313 37.238281 33.390625 37.691406 C 31 40.140625 28.148438 41.769531 25 41.769531 C 21.851563 41.769531 19 40.128906 16.609375 37.679688 C 16.179688 37.230469 13.609375 38.429688 14.441406 39.429688 C 17.179688 42.878906 20.898438 45 25 45 Z "></path>
        <path style=" fill:#66BFA1;" d="M 45 54 L 5 54 C 2.789063 54 1 55.789063 1 58 C 1 58.550781 1.449219 59 2 59 L 48 59 C 48.550781 59 49 58.550781 49 58 C 49 55.789063 47.210938 54 45 54 Z "></path>
        <path style=" fill:#FAEFDE;" d="M 13 24.75 C 13.148438 18.265625 18.515625 13.121094 25 13.25 C 31.484375 13.121094 36.851563 18.265625 37 24.75 L 37 26.671875 C 37 33.429688 31.351563 42 25 42 C 18.648438 42 13 33.429688 13 26.671875 Z "></path>
        <path style=" fill:#FAEFDE;" d="M 29.128906 25.230469 C 29.128906 20.171875 33.589844 16.050781 39.058594 16.050781 C 44.53125 16.050781 49 20.160156 49 25.230469 L 49 26.761719 C 49 32.148438 44.320313 39 39.070313 39 C 33.820313 39 29.140625 32.148438 29.140625 26.761719 Z "></path>
        <path style=" fill:#FAEFDE;" d="M 41.171875 26.621094 C 41.320313 22.359375 44.820313 18.980469 49.085938 18.980469 C 53.347656 18.980469 56.847656 22.359375 57 26.621094 L 57 27.878906 C 57 32.339844 53.269531 38 49.078125 38 C 44.890625 38 41.160156 32.339844 41.160156 27.878906 Z "></path>
        <path style=" fill:#8D6C9F;" d="M 61 38.890625 L 55.101563 34.828125 L 55.21875 34.679688 L 55.5 34.351563 L 55.5 34.289063 C 56.929688 32.445313 57.734375 30.191406 57.789063 27.859375 L 57.789063 26.78125 C 57.828125 22.167969 54.269531 18.320313 49.671875 18 C 48.738281 17.957031 47.804688 18.074219 46.910156 18.339844 C 45.074219 16.285156 42.472656 15.074219 39.71875 15 C 37.929688 14.960938 36.160156 15.398438 34.589844 16.261719 C 30.972656 12.308594 25.304688 10.980469 20.308594 12.914063 C 15.3125 14.84375 12.015625 19.644531 12 25 L 12 27 C 12.097656 30.609375 13.261719 34.109375 15.339844 37.058594 L 6.21875 42.640625 C 2.367188 45.011719 0.015625 49.207031 0 53.730469 L 0 57 C 0 58.65625 1.34375 60 3 60 L 47 60 C 48.65625 60 50 58.65625 50 57 L 50 54 L 55 54 C 56.65625 54 58 52.65625 58 51 L 58 50 L 61 50 C 62.65625 50 64 48.65625 64 47 L 64 44.648438 C 64.003906 42.355469 62.882813 40.203125 61 38.890625 Z M 14 25 C 14 18.925781 18.925781 14 25 14 C 31.074219 14 36 18.925781 36 25 L 36 27 C 36 33.300781 30.921875 41 25 41 C 19.078125 41 14 33.300781 14 27 Z M 48 57 C 48 57.550781 47.550781 58 47 58 L 3 58 C 2.449219 58 2 57.550781 2 57 L 2 53.730469 C 2.011719 49.902344 4 46.351563 7.261719 44.339844 L 16.570313 38.648438 C 18.839844 41.238281 21.78125 43 25 43 C 28.21875 43 31.160156 41.238281 33.429688 38.648438 L 42.738281 44.339844 C 46 46.351563 47.988281 49.902344 48 53.730469 Z M 55 52 L 49.878906 52 C 49.347656 48.125 47.109375 44.691406 43.78125 42.640625 L 34.660156 37.070313 C 36.742188 34.117188 37.902344 30.613281 38 27 L 38 25 C 38 22.464844 37.257813 19.984375 35.859375 17.871094 C 37.042969 17.273438 38.355469 16.972656 39.679688 17 C 44.203125 17.203125 47.742188 20.964844 47.679688 25.488281 L 47.679688 26.828125 C 47.613281 29.410156 46.652344 31.882813 44.960938 33.828125 L 44.78125 34.039063 C 44.542969 34.304688 44.292969 34.554688 44.03125 34.789063 C 43.605469 35.167969 43.140625 35.503906 42.648438 35.789063 C 42.199219 36.078125 42.050781 36.671875 42.320313 37.132813 C 42.589844 37.597656 43.175781 37.769531 43.648438 37.519531 C 44.039063 37.292969 44.414063 37.039063 44.769531 36.761719 L 52.800781 42 C 54.785156 43.285156 55.992188 45.484375 56 47.851563 L 56 51 C 56 51.550781 55.550781 52 55 52 Z M 62 47 C 62 47.550781 61.550781 48 61 48 L 58 48 L 58 47.851563 C 58 44.796875 56.453125 41.949219 53.890625 40.289063 L 46.261719 35.351563 L 46.398438 35.179688 C 46.558594 35 46.71875 34.808594 46.878906 34.621094 C 48.605469 32.398438 49.574219 29.683594 49.640625 26.871094 L 49.640625 25.488281 C 49.636719 23.59375 49.125 21.734375 48.160156 20.101563 C 50.101563 19.75 52.097656 20.304688 53.582031 21.605469 C 55.066406 22.90625 55.878906 24.808594 55.789063 26.78125 L 55.789063 27.871094 C 55.734375 29.929688 54.964844 31.90625 53.609375 33.460938 L 53.460938 33.640625 C 53.269531 33.851563 53.070313 34.050781 52.859375 34.238281 C 52.519531 34.542969 52.152344 34.8125 51.761719 35.039063 C 51.308594 35.328125 51.164063 35.921875 51.429688 36.382813 C 51.699219 36.847656 52.285156 37.019531 52.761719 36.769531 C 53.042969 36.605469 53.316406 36.425781 53.578125 36.230469 L 59.820313 40.539063 C 61.179688 41.46875 61.992188 43.003906 62 44.648438 Z "></path>
        <path style=" fill:#8D6C9F;" d="M 40 52 C 39.449219 52 39 52.449219 39 53 L 39 55 C 39 55.550781 39.449219 56 40 56 C 40.550781 56 41 55.550781 41 55 L 41 53 C 41 52.449219 40.550781 52 40 52 Z "></path>
        <path style=" fill:#8D6C9F;" d="M 44 53 L 44 55 C 44 55.550781 44.449219 56 45 56 C 45.550781 56 46 55.550781 46 55 L 46 53 C 46 52.449219 45.550781 52 45 52 C 44.449219 52 44 52.449219 44 53 Z "></path>
        <path style=" fill:#8D6C9F;" d="M 35 52 C 34.449219 52 34 52.449219 34 53 L 34 55 C 34 55.550781 34.449219 56 35 56 C 35.550781 56 36 55.550781 36 55 L 36 53 C 36 52.449219 35.550781 52 35 52 Z "></path>
        <path style=" fill:#8D6C9F;" d="M 30 52 C 29.449219 52 29 52.449219 29 53 L 29 55 C 29 55.550781 29.449219 56 30 56 C 30.550781 56 31 55.550781 31 55 L 31 53 C 31 52.449219 30.550781 52 30 52 Z "></path>
        <path style=" fill:#8D6C9F;" d="M 25 52 C 24.449219 52 24 52.449219 24 53 L 24 55 C 24 55.550781 24.449219 56 25 56 C 25.550781 56 26 55.550781 26 55 L 26 53 C 26 52.449219 25.550781 52 25 52 Z "></path>
        <path style=" fill:#8D6C9F;" d="M 20 52 C 19.449219 52 19 52.449219 19 53 L 19 55 C 19 55.550781 19.449219 56 20 56 C 20.550781 56 21 55.550781 21 55 L 21 53 C 21 52.449219 20.550781 52 20 52 Z "></path>
        <path style=" fill:#8D6C9F;" d="M 15 52 C 14.449219 52 14 52.449219 14 53 L 14 55 C 14 55.550781 14.449219 56 15 56 C 15.550781 56 16 55.550781 16 55 L 16 53 C 16 52.449219 15.550781 52 15 52 Z "></path>
        <path style=" fill:#8D6C9F;" d="M 10 52 C 9.449219 52 9 52.449219 9 53 L 9 55 C 9 55.550781 9.449219 56 10 56 C 10.550781 56 11 55.550781 11 55 L 11 53 C 11 52.449219 10.550781 52 10 52 Z "></path>
        <path style=" fill:#8D6C9F;" d="M 5 52 C 4.449219 52 4 52.449219 4 53 L 4 55 C 4 55.550781 4.449219 56 5 56 C 5.550781 56 6 55.550781 6 55 L 6 53 C 6 52.449219 5.550781 52 5 52 Z "></path>
        <path style=" fill:#FAEFDE;" d="M 28 46 L 22 46 C 21.449219 46 21 46.449219 21 47 C 21 47.550781 21.449219 48 22 48 L 28 48 C 28.550781 48 29 47.550781 29 47 C 29 46.449219 28.550781 46 28 46 Z "></path>
    </g>
</svg>