<svg xmlns="http://www.w3.org/2000/svg" xmlns:xlink="http://www.w3.org/1999/xlink" viewBox="0 0 64 64" version="1.1">
    <g id="surface1">
        <path style=" fill:#C5E4FA;" d="M 57 32.828125 C 57 48.292969 44.464844 60.828125 29 60.828125 C 13.535156 60.828125 1 48.292969 1 32.828125 C 1 17.367188 13.535156 4.828125 29 4.828125 C 44.464844 4.828125 57 17.367188 57 32.828125 Z "></path>
        <path style=" fill:#E3F2FF;" d="M 10.710938 54.109375 C 13.359375 56.632813 16.480469 58.609375 19.890625 59.929688 L 54 25.828125 L 54 19.398438 C 52.945313 17.648438 51.699219 16.019531 50.289063 14.539063 Z "></path>
        <path style=" fill:#E3F2FF;" d="M 8.761719 52.058594 L 48 12.828125 L 42 12.828125 L 6.21875 48.609375 C 6.976563 49.824219 7.828125 50.976563 8.761719 52.058594 Z "></path>
        <path style=" fill:#E3F2FF;" d="M 5.789063 45 L 39 11.828125 L 36 9.828125 L 4.359375 41.460938 C 4.753906 42.671875 5.234375 43.855469 5.789063 45 Z "></path>
        <path style=" fill:#F9E3AE;" d="M 29 5 C 13.535156 5 1 17.535156 1 33 C 1 48.464844 13.535156 61 29 61 C 44.464844 61 57 48.464844 57 33 C 57 17.535156 44.464844 5 29 5 Z M 29 55 C 19.109375 55 10.433594 48.402344 7.792969 38.867188 C 5.15625 29.335938 9.203125 19.214844 17.6875 14.128906 C 26.171875 9.042969 37.007813 10.246094 44.171875 17.070313 L 44.851563 17.738281 C 45.109375 18.007813 45.359375 18.28125 45.601563 18.558594 C 51.257813 25.0625 52.597656 34.273438 49.023438 42.121094 C 45.449219 49.964844 37.621094 55 29 55 Z "></path>
        <path style=" fill:#F6D397;" d="M 29 55 C 16.851563 55 7 45.148438 7 33 L 5.339844 33 C 4.152344 32.996094 3.023438 33.519531 2.261719 34.429688 C 1.5 35.339844 1.179688 36.542969 1.390625 37.710938 C 3.675781 51.171875 15.339844 61.023438 28.996094 61.023438 C 42.652344 61.023438 54.3125 51.171875 56.601563 37.710938 C 56.808594 36.542969 56.492188 35.34375 55.730469 34.433594 C 54.972656 33.523438 53.847656 33 52.660156 33 L 51 33 C 51 45.148438 41.148438 55 29 55 Z "></path>
        <path style=" fill:#72CAAF;" d="M 13.851563 26.851563 L 29 42 L 59.808594 11.191406 L 55.808594 7.191406 L 29 34 L 17.851563 22.851563 Z "></path>
        <path style=" fill:#97E0BB;" d="M 29.058594 37 C 28.394531 37.003906 27.757813 36.738281 27.289063 36.269531 L 16.359375 25.339844 L 18.480469 23.21875 L 29.058594 33.789063 L 55.710938 7.148438 L 57.828125 9.269531 L 30.828125 36.269531 C 30.359375 36.738281 29.722656 37.003906 29.058594 37 Z "></path>
        <path style=" fill:#8D6C9F;" d="M 29 50 C 29.550781 50 30 49.550781 30 49 L 30 47 C 30 46.449219 29.550781 46 29 46 C 28.449219 46 28 46.449219 28 47 L 28 49 C 28 49.550781 28.449219 50 29 50 Z "></path>
        <path style=" fill:#8D6C9F;" d="M 12 33 C 12 33.550781 12.449219 34 13 34 L 15 34 C 15.550781 34 16 33.550781 16 33 C 16 32.449219 15.550781 32 15 32 L 13 32 C 12.449219 32 12 32.449219 12 33 Z "></path>
        <path style=" fill:#8D6C9F;" d="M 43 34 L 45 34 C 45.550781 34 46 33.550781 46 33 C 46 32.449219 45.550781 32 45 32 L 43 32 C 42.449219 32 42 32.449219 42 33 C 42 33.550781 42.449219 34 43 34 Z "></path>
        <path style=" fill:#8D6C9F;" d="M 29 16 C 28.449219 16 28 16.449219 28 17 L 28 19 C 28 19.550781 28.449219 20 29 20 C 29.550781 20 30 19.550781 30 19 L 30 17 C 30 16.449219 29.550781 16 29 16 Z "></path>
        <path style=" fill:#8D6C9F;" d="M 22.628906 48.761719 C 23.140625 48.964844 23.722656 48.71875 23.929688 48.210938 L 24.679688 46.359375 C 24.847656 45.859375 24.597656 45.3125 24.109375 45.113281 C 23.617188 44.917969 23.058594 45.132813 22.828125 45.609375 L 22.078125 47.460938 C 21.875 47.972656 22.121094 48.550781 22.628906 48.761719 Z "></path>
        <path style=" fill:#8D6C9F;" d="M 17.191406 45.230469 C 17.578125 45.617188 18.210938 45.617188 18.601563 45.230469 L 20 43.769531 C 20.382813 43.371094 20.371094 42.738281 19.976563 42.355469 C 19.578125 41.972656 18.945313 41.980469 18.558594 42.378906 L 17.171875 43.820313 C 16.789063 44.214844 16.796875 44.84375 17.191406 45.230469 Z "></path>
        <path style=" fill:#8D6C9F;" d="M 14 38.589844 C 13.496094 38.8125 13.265625 39.40625 13.488281 39.910156 C 13.714844 40.414063 14.304688 40.644531 14.808594 40.421875 L 16.640625 39.609375 C 17.144531 39.386719 17.375 38.796875 17.148438 38.289063 C 16.925781 37.785156 16.335938 37.554688 15.828125 37.78125 Z "></path>
        <path style=" fill:#8D6C9F;" d="M 36.351563 13.320313 C 37.066406 13.589844 37.765625 13.894531 38.449219 14.238281 C 38.945313 14.488281 39.546875 14.289063 39.796875 13.796875 C 40.042969 13.300781 39.84375 12.699219 39.351563 12.449219 C 38.601563 12.074219 37.835938 11.742188 37.050781 11.449219 C 36.710938 11.300781 36.316406 11.351563 36.027344 11.582031 C 35.734375 11.8125 35.59375 12.183594 35.664063 12.546875 C 35.730469 12.914063 35.996094 13.210938 36.351563 13.320313 Z "></path>
        <path style=" fill:#8D6C9F;" d="M 60.710938 10.289063 L 56.710938 6.289063 C 56.320313 5.902344 55.691406 5.902344 55.300781 6.289063 L 49.300781 12.289063 C 43.894531 6.949219 36.597656 3.96875 29 4 C 15.855469 3.980469 4.34375 12.800781 0.941406 25.496094 C -2.457031 38.191406 3.101563 51.585938 14.496094 58.136719 C 25.886719 64.691406 40.261719 62.761719 49.527344 53.441406 C 58.789063 44.117188 60.625 29.730469 54 18.378906 L 60.679688 11.699219 C 61.074219 11.316406 61.089844 10.6875 60.710938 10.289063 Z M 56 33 C 56 47.910156 43.910156 60 29 60 C 14.089844 60 2 47.910156 2 33 C 2 18.089844 14.089844 6 29 6 C 36.066406 5.976563 42.851563 8.746094 47.878906 13.710938 L 45 16.539063 C 44.402344 15.953125 43.777344 15.398438 43.121094 14.878906 C 42.84375 14.628906 42.449219 14.550781 42.097656 14.683594 C 41.746094 14.8125 41.496094 15.128906 41.453125 15.503906 C 41.410156 15.875 41.578125 16.242188 41.890625 16.449219 C 42.484375 16.917969 43.050781 17.421875 43.589844 17.949219 L 29 32.589844 L 18.710938 22.289063 C 18.320313 21.902344 17.691406 21.902344 17.300781 22.289063 L 13.300781 26.289063 C 12.914063 26.679688 12.914063 27.308594 13.300781 27.699219 L 28.300781 42.699219 C 28.691406 43.085938 29.320313 43.085938 29.710938 42.699219 L 48.109375 24.300781 L 48.371094 24.878906 C 48.53125 25.261719 48.671875 25.628906 48.808594 26.019531 L 48.929688 26.359375 C 50.632813 31.578125 50.25 37.257813 47.859375 42.199219 L 47.609375 42.679688 C 47.421875 43.050781 47.21875 43.421875 47.011719 43.78125 C 46.800781 44.140625 46.730469 44.210938 46.589844 44.429688 C 46.289063 44.898438 45.957031 45.351563 45.589844 45.800781 C 45.351563 46.109375 45.109375 46.421875 44.859375 46.71875 C 44.609375 47.019531 44.511719 47.101563 44.328125 47.289063 C 40.414063 51.519531 34.925781 53.949219 29.164063 54.003906 C 23.398438 54.058594 17.867188 51.734375 13.871094 47.578125 C 13.640625 47.339844 13.410156 47.078125 13.191406 46.828125 C 12.96875 46.578125 12.691406 46.25 12.449219 45.949219 C 12.210938 45.648438 12.171875 45.570313 12.03125 45.378906 C 11.738281 44.988281 11.460938 44.589844 11.199219 44.179688 L 11.019531 43.871094 C 10.71875 43.371094 10.429688 42.871094 10.171875 42.328125 L 10.171875 42.25 C 9.589844 41.070313 9.121094 39.835938 8.769531 38.570313 L 8.769531 38.449219 C 8.609375 37.863281 8.476563 37.273438 8.371094 36.679688 C 8.371094 36.519531 8.371094 36.371094 8.300781 36.210938 C 8.21875 35.730469 8.160156 35.210938 8.121094 34.75 C 8.121094 34.460938 8.121094 34.160156 8.121094 33.871094 C 8.121094 33.578125 8.121094 33.128906 8.121094 32.75 C 8.121094 32.371094 8.121094 32.058594 8.171875 31.75 C 8.21875 31.441406 8.171875 31.058594 8.238281 30.75 C 8.308594 30.441406 8.328125 30.160156 8.371094 29.871094 C 8.410156 29.578125 8.488281 29.058594 8.578125 28.660156 C 8.578125 28.449219 8.691406 28.238281 8.738281 28.03125 C 8.859375 27.550781 8.980469 27.03125 9.140625 26.589844 C 9.140625 26.441406 9.238281 26.300781 9.289063 26.160156 C 9.46875 25.640625 9.671875 25.160156 9.898438 24.601563 C 9.980469 24.421875 10.070313 24.238281 10.160156 24.058594 C 10.339844 23.679688 10.519531 23.308594 10.71875 22.941406 C 10.921875 22.570313 10.980469 22.511719 11.109375 22.289063 C 11.378906 21.839844 11.648438 21.410156 11.949219 20.988281 C 12.25 20.570313 12.480469 20.238281 12.769531 19.890625 C 12.910156 19.71875 13.058594 19.558594 13.199219 19.390625 C 13.480469 19.070313 13.769531 18.738281 14.070313 18.390625 C 14.371094 18.039063 14.578125 17.871094 14.851563 17.621094 L 15.078125 17.410156 C 15.460938 17.070313 15.851563 16.738281 16.261719 16.410156 L 16.519531 16.21875 C 16.832031 15.980469 17.167969 15.753906 17.519531 15.539063 L 17.949219 15.261719 C 18.25 15.070313 18.558594 14.890625 18.871094 14.710938 L 19.289063 14.46875 C 19.679688 14.261719 20.078125 14.070313 20.488281 13.878906 L 21.199219 13.578125 L 21.800781 13.339844 L 22.628906 13.050781 L 23.011719 12.929688 C 23.617188 12.742188 24.226563 12.582031 24.839844 12.449219 L 25.140625 12.390625 L 26.140625 12.21875 L 26.539063 12.171875 C 27.5 12.046875 28.46875 11.988281 29.441406 12 L 30.128906 12 L 30.890625 12.050781 L 31.980469 12.179688 L 32.328125 12.179688 C 32.59375 12.222656 32.863281 12.160156 33.078125 12.003906 C 33.292969 11.847656 33.4375 11.613281 33.480469 11.351563 C 33.523438 11.085938 33.460938 10.816406 33.304688 10.601563 C 33.148438 10.386719 32.914063 10.242188 32.648438 10.199219 L 32.269531 10.199219 C 31.871094 10.140625 31.460938 10.089844 31.058594 10.058594 L 30.261719 10 L 28.558594 10 C 27.765625 10.019531 26.976563 10.078125 26.191406 10.179688 L 25.648438 10.25 L 24.648438 10.421875 L 24.140625 10.53125 C 23.578125 10.648438 23.027344 10.792969 22.480469 10.960938 L 21.828125 11.160156 L 21.03125 11.449219 L 20.238281 11.761719 L 19.570313 12.039063 C 19.101563 12.25 18.640625 12.46875 18.191406 12.710938 L 17.859375 12.898438 C 17.472656 13.113281 17.09375 13.335938 16.71875 13.570313 L 16.320313 13.828125 C 15.925781 14.089844 15.542969 14.359375 15.171875 14.640625 L 14.960938 14.800781 C 14.507813 15.148438 14.066406 15.511719 13.640625 15.898438 L 13.429688 16.089844 C 13.210938 16.300781 12.980469 16.5 12.769531 16.71875 L 12.539063 16.96875 C 12.21875 17.300781 11.910156 17.640625 11.609375 17.96875 C 11.449219 18.160156 11.28125 18.339844 11.121094 18.539063 C 10.808594 18.921875 10.519531 19.320313 10.238281 19.730469 C 9.960938 20.140625 9.601563 20.730469 9.300781 21.179688 C 9.160156 21.410156 9.011719 21.640625 8.878906 21.878906 C 8.660156 22.28125 8.46875 22.679688 8.269531 23.089844 C 8.199219 23.25 8.109375 23.390625 8.039063 23.550781 L 7.949219 23.769531 C 7.839844 24.011719 7.738281 24.25 7.648438 24.5 C 7.464844 24.980469 7.289063 25.460938 7.128906 25.941406 C 7.058594 26.148438 7 26.359375 6.941406 26.578125 C 6.78125 27.125 6.644531 27.671875 6.53125 28.21875 L 6.441406 28.671875 C 6.320313 29.289063 6.230469 29.910156 6.171875 30.53125 L 6.171875 30.828125 C 6.109375 31.496094 6.078125 32.164063 6.070313 32.828125 C 6.058594 33.828125 6 33 6 33 C 6 33 6 33.109375 6 33.171875 C 6 33.789063 6.035156 34.398438 6.101563 35 C 6.101563 35.191406 6.101563 35.371094 6.160156 35.558594 C 6.21875 36.066406 6.292969 36.570313 6.378906 37.070313 C 6.429688 37.359375 6.488281 37.648438 6.550781 37.941406 C 6.609375 38.230469 6.738281 38.71875 6.839844 39.109375 C 7.203125 40.417969 7.679688 41.6875 8.269531 42.910156 L 8.421875 43.21875 C 8.613281 43.601563 8.816406 43.976563 9.03125 44.351563 C 9.242188 44.722656 9.433594 45.039063 9.601563 45.300781 C 9.75 45.53125 9.890625 45.761719 10.039063 45.980469 C 10.351563 46.441406 10.691406 46.878906 11.039063 47.320313 L 11.320313 47.671875 C 11.746094 48.183594 12.195313 48.679688 12.671875 49.160156 L 12.738281 49.238281 C 17.046875 53.5625 22.898438 55.992188 29 56 C 35.105469 55.996094 40.960938 53.574219 45.289063 49.269531 L 45.441406 49.101563 C 45.808594 48.734375 46.160156 48.351563 46.5 47.949219 L 46.71875 47.679688 C 47.039063 47.300781 47.351563 46.898438 47.640625 46.5 L 47.789063 46.28125 C 48.101563 45.839844 48.398438 45.386719 48.679688 44.921875 L 48.730469 44.828125 C 52.21875 39.085938 52.988281 32.09375 50.828125 25.730469 L 50.710938 25.390625 C 50.558594 24.957031 50.390625 24.523438 50.210938 24.089844 L 49.96875 23.53125 C 49.859375 23.289063 49.75 23.050781 49.628906 22.808594 L 52.628906 19.808594 C 54.863281 23.84375 56.023438 28.386719 56 33 Z M 29 40.589844 L 15.410156 27 L 18 24.410156 L 28.289063 34.710938 C 28.679688 35.097656 29.308594 35.097656 29.699219 34.710938 L 56 8.410156 L 58.589844 11 Z "></path>
    </g>
</svg>